<?xml version="1.0" encoding="utf-8"?>
<!-- Generator: Adobe Illustrator 26.3.0, SVG Export Plug-In . SVG Version: 6.00 Build 0)  -->
<svg version="1.1" id="Layer_1" xmlns="http://www.w3.org/2000/svg" xmlns:xlink="http://www.w3.org/1999/xlink" x="0px" y="0px"
	 viewBox="0 0 11.1 72" style="enable-background:new 0 0 11.1 72;" xml:space="preserve">
<style type="text/css">
	.st0{fill:#FF942F;}
</style>
<path class="st0" d="M11.1,0H7.3c0,3-3.2,5.5-7.3,5.6v0.7h1.2c0.5,0,1,0.3,1,0.7v0c0,0.4-0.4,0.7-1,0.7H0v1.4h1.2c0.5,0,1,0.3,1,0.7
	v0c0,0.4-0.4,0.7-1,0.7H0v1.4h1.2c0.5,0,1,0.3,1,0.7v0c0,0.4-0.4,0.7-1,0.7H0V15h1.2c0.5,0,1,0.3,1,0.7v0c0,0.4-0.4,0.7-1,0.7H0v1.4
	h1.2c0.5,0,1,0.3,1,0.7v0c0,0.4-0.4,0.7-1,0.7H0v1.4h1.2c0.5,0,1,0.3,1,0.7v0c0,0.4-0.4,0.7-1,0.7H0v1.4h1.2c0.5,0,1,0.3,1,0.7v0
	c0,0.4-0.4,0.7-1,0.7H0v1.4h1.2c0.5,0,1,0.3,1,0.7v0c0,0.4-0.4,0.7-1,0.7H0v1.4h1.2c0.5,0,1,0.3,1,0.7v0c0,0.4-0.4,0.7-1,0.7H0v1.4
	h1.2c0.5,0,1,0.3,1,0.7v0c0,0.4-0.4,0.7-1,0.7H0v1.4h1.2c0.5,0,1,0.3,1,0.7v0c0,0.4-0.4,0.7-1,0.7H0v1.4h1.2c0.5,0,1,0.3,1,0.7v0
	c0,0.4-0.4,0.7-1,0.7H0v1.4h1.2c0.5,0,1,0.3,1,0.7v0c0,0.4-0.4,0.7-1,0.7H0V44h1.2c0.5,0,1,0.3,1,0.7v0c0,0.4-0.4,0.7-1,0.7H0v1.4
	h1.2c0.5,0,1,0.3,1,0.7v0c0,0.4-0.4,0.7-1,0.7H0v1.4h1.2c0.5,0,1,0.3,1,0.7v0c0,0.4-0.4,0.7-1,0.7H0v1.4h1.2c0.5,0,1,0.3,1,0.7v0
	c0,0.4-0.4,0.7-1,0.7H0v1.4h1.2c0.5,0,1,0.3,1,0.7v0c0,0.4-0.4,0.7-1,0.7H0v1.4h1.2c0.5,0,1,0.3,1,0.7v0c0,0.4-0.4,0.7-1,0.7H0v1.4
	h1.2c0.5,0,1,0.3,1,0.7v0c0,0.4-0.4,0.7-1,0.7H0v1.4h1.2c0.5,0,1,0.3,1,0.7v0c0,0.4-0.4,0.7-1,0.7H0v0.7C4.1,66.5,7.3,69,7.3,72h3.9
	"/>
</svg>
