<svg xmlns="http://www.w3.org/2000/svg" viewBox="0 0 360 99.4"><path d="M300.3 97.8c-2.6 0-5.3 0-7.9-.1-1.6 0-3.1 0-4.6-.1-12.7-.2-25.6-.2-38-.2 0 0-25.4-.1-36.6-.1-28.2-.1-57.4-.1-86-.4H92.9c-16.4 0-33.9-.2-51.2-1.9-19.1-1.8-30.8-8.3-35.6-19.9-8.6-20.2-4.3-41 10.9-52.9l.4-.4c2.8-4.2 6.4-7.7 10.7-10.1C41 4.2 56.9 3.9 72.2 3.6c2.4 0 4.8-.1 7.1-.2 36.3-1.2 72-1.8 105.9-1.8 47.3 0 93.2 1.2 136.7 3.5 13.8 1.1 31.2 6.2 34.7 24.5 1.3 6.7 3.8 23.9-1.9 36.9-2.7 6.2-6.5 10.9-11.7 14.5-.2.1-.3.2-.4.4-3.8 5.4-8.3 9.3-13.1 11.5-9.6 4.3-19.7 4.9-29.2 4.9z" fill="#fff"/><path d="M358.3 29.3C354.8 11.4 338.6 4.8 322 3.5 241.5-.8 159.9-.8 79.3 1.8c-17.4.6-36.6-.4-52.1 8.6-4.8 2.8-8.5 6.5-11.3 10.7C-1 34.2-3.7 56.6 4.3 75.9c6.3 14.8 22.2 19.5 36.9 20.9 28.3 2.7 57.3 1.6 85.7 1.8 39.9.3 79.8.3 119.7.4 13.6 0 27.3.1 40.9.2 14.6.2 28.8 1.2 42.5-5 5.7-2.6 10.2-7 13.8-12 5.1-3.5 9.3-8.3 12.3-15.2 5.1-11.1 4.5-26 2.2-37.7zM355 51.6c-.6 26.8-24.9 35.3-48.2 34.2-26.5-1.2-53.1-.5-79.6-.6-40.2-.1-80.5-.2-120.7-.6-14.7-.2-29.4-.4-44-.9-14-.5-29.7-1.1-40.2-11.6-13.4-13.5-10.8-40.4 1.4-53.3C35.1 6.9 53.4 7.5 68.6 6.8c29.9-1.4 59.8-1.5 89.7-1.5C212.8 5.2 267.6 5.1 322 8c13.4 1 25.9 5.2 30.8 18.7 2.9 7.8 2.4 16.8 2.2 24.9z"/></svg>