<?xml version="1.0" encoding="utf-8"?>
<!-- Generator: Adobe Illustrator 26.3.1, SVG Export Plug-In . SVG Version: 6.00 Build 0)  -->
<svg version="1.1" id="Layer_1" xmlns="http://www.w3.org/2000/svg" xmlns:xlink="http://www.w3.org/1999/xlink" x="0px" y="0px"
	 viewBox="0 0 1910 1072.3" style="enable-background:new 0 0 1910 1072.3;" xml:space="preserve">
<path d="M15.3,1042.6c-1.1-2.2-2.1-3.7-2.8-5.4c-6.6-17.1-11.3-34.5-10.9-53c1.2-49.6,2.9-99.3,3.3-148.9c0.3-43.5-0.9-87-1.7-130.5
	c-1-47-3.3-94-3.2-140.9c0.1-45,2.8-89.9,3.9-134.9c0.4-17.5-0.5-35-0.4-52.4c0.4-47.8,0.9-95.6,1.6-143.4
	c0.8-48.4,5.4-96.4,11.6-144.4C19.1,71,20.5,53,22.3,35.1C23.7,20.3,38.1,5,53.1,4.5C76.4,3.8,99.7,4,123,4.2
	C194.7,5,266.3,4,338,1.9c75.8-2.3,151.6-2,227.4,0.7c19.6,0.7,39.3,2.1,58.8,3.9c32.3,3,64.5,2.6,96.9,2.1c33.3-0.6,66.7,0,100-0.8
	c45.3-1.1,90.6-0.2,135.9,0.9c34.9,0.9,69.9-1.5,104.9-2c19.7-0.3,39.3,0.9,59,0.7c43.8-0.5,87.6-1.8,131.4-2.2
	c57.7-0.6,115.3-0.5,173-1c56.8-0.5,113.6-1.9,170.5-2.2c28.2-0.1,56.3,1,84.4,2.1c60.8,2.4,121.6,2.5,182.3-3.3
	c6.3-0.6,12.7-0.8,19-0.8c16.9,0,27.4,10.6,27.3,27.4c-0.3,67.3-1.1,134.6-0.9,202c0.2,57,2.3,114,2,171
	c-0.2,39.6-3.5,79.2-4.5,118.9c-0.8,30,0,60-0.2,90c-0.3,43.5-0.9,87-1.3,130.5c-0.4,49.3-0.1,98.7-1,148
	c-0.9,49.1-2.9,98.2-4.5,147.4c0,0.8,0.1,1.7-0.2,2.5c-0.6,1.4-1.4,2.7-2.1,4c-1.3-0.8-3-1.4-4-2.5c-6.6-8.1-8.7-17.5-7.4-27.7
	c2.8-23.3,6.1-46.6,8.6-69.9c4.4-41.2,4.3-82.5,2.5-123.8c-2.5-58.6-0.8-117.3,0.1-176c0.7-41-0.8-82-0.7-123
	c0-25.8,1.8-51.6,1.5-77.5c-0.8-70-2.2-139.9-3.4-209.9c-1.1-60.1-2.2-120.3-3.4-180.4c-0.2-8.8-0.6-17.7-0.9-26.5
	c-0.3-8.2-2.9-10.7-11.2-10.3c-17.1,0.9-34.2,2.8-51.4,3.2c-31.5,0.6-63,1-94.4,0.3c-28.1-0.6-56.2-3.6-84.4-4.1
	c-38.8-0.7-77.6-0.3-116.4,0c-48,0.4-96,1.4-144,2c-62,0.7-123.9,3-185.8,6.4c-41.7,2.3-83.6,1.7-125.4,2.6
	c-15.8,0.4-31.6,1.3-47.4,2.3c-29.7,1.8-59.3-0.5-88.8-3.4c-44-4.3-88.1-5.1-132.3-4.5c-53,0.7-106,1.2-159,0.4
	c-35-0.5-69.9-3.1-104.9-5.2c-50.8-3.1-101.6-2.3-152.4-0.5c-61.8,2.2-123.6,2.8-185.4,0.9c-40.5-1.2-81-1.5-121.4-2.1
	c-3.3,0-6.7,0.3-10,0.4c-21.3,0.7-35.5,11.6-39.6,32.6c-6.5,32.8-13.1,65.7-17.5,98.8c-2.9,21.4-2.2,43.2-2.6,64.9
	c-0.7,34-1.1,68-1.4,102c-0.2,20,0.4,40,0.1,60c-0.4,30.8-1.1,61.6-2.1,92.4c-1.4,41.4,0.6,82.6,3.2,123.9
	c3.1,48.3,4.6,96.5,4.2,144.9c-0.3,52.3-1.4,104.6-0.6,156.9c0.7,45.8-0.8,91.7,5.2,137.3c0.3,2.3-0.8,5.1-1.9,7.3
	C19.7,1036.6,17.6,1039.2,15.3,1042.6z"/>
<path d="M3.6,1040.1c2.3,1.1,4.4,2.3,6.7,3.2c19.6,7.6,40.1,7.7,60.7,6.6c22.5-1.2,44.9-3.3,67.3-3.8c23.3-0.5,46.7-0.1,70,1
	c65.7,3,131.3,8.8,197.2,8.6c49.3-0.1,98.7-0.2,148,0.7c41.5,0.8,82.9,3.4,124.4,4.7c59.5,1.9,118.9-1.6,178.4-4.3
	c65.1-2.9,130.2-5,195.3-6.6c63.3-1.5,126.6-2.9,189.9-2.5c58,0.4,115.9,3.1,173.9,5c40.5,1.3,80.9,3.5,121.4,4.5
	c46.5,1.1,93,2,139.4,1.7c33.3-0.2,66.6-2.6,99.9-4c35.2-1.5,70-5.8,104.8-11.3c0.5-0.1,1,0,1.7,0.7c-2.3,0.6-4.7,1.3-7.1,1.9
	c-2.6,0.7-5.2,1.4-7.8,1.9c-40.2,7.9-80.9,13.3-121.7,17c-48.7,4.5-97.5,5.8-146.3,5.3c-61.8-0.6-123.6-1.2-185.4-2.6
	c-72.6-1.6-145.3-4.4-217.9-5.7c-60-1.1-120-1.3-180-0.7c-51.3,0.6-102.6,3.2-153.9,4.3c-49.2,1-98.3,1.7-147.5,1.4
	c-40.8-0.2-81.6-2.7-122.4-2.8c-44.3-0.1-88.6,1.1-132.9,2.2c-51.8,1.3-103.6,3.6-155.4,4.2c-25.1,0.3-50.2-2.8-75.4-3.8
	c-40-1.6-79.9-0.9-119.8,2.8c-23.2,2.1-46.5,3.8-69.8,0.6c-0.3-0.1-0.7-0.1-1-0.1C16.5,1067.4,9.8,1061.5,3.6,1040.1z"/>
</svg>
