<?xml version="1.0" encoding="utf-8"?>
<!-- Generator: Adobe Illustrator 26.3.1, SVG Export Plug-In . SVG Version: 6.00 Build 0)  -->
<svg version="1.1" id="Layer_1" xmlns="http://www.w3.org/2000/svg" xmlns:xlink="http://www.w3.org/1999/xlink" x="0px" y="0px"
	 viewBox="0 0 280.2 200" style="enable-background:new 0 0 280.2 200;" xml:space="preserve">
<g id="BACKGROUND_1_">
</g>
<g id="OBJECTS">
	<path d="M274.3,7.6c3.6,0,0.8,0,5.5,0c0.1,0,0.2,0,0.4,0c0-2.5,0-4.9,0-7.4c-2.2,0-4.3,0-6.5,0c-321.9,0-200,0-273.7,0l0,7.4
		c4.7,0,2.2,0,7.2,0c0,5,0,10,0,15.3c-4.8,0-2.3,0-7.2,0l0.2,155.1c4.6,0,2.1,0,7.1,0c0,5,0,10,0,15.3c-4.8,0-2.5,0-7.2,0l0,6.9
		c207.9,0,66.9,0,274.9,0c1.8,0,3.5-0.1,5.3-0.2c0-2.2,0-4.5,0-6.7c-4.1,0-1,0-5.9,0c0-5,0-9.9,0-15.3c4.7,0,1.5,0,5.9,0
		c0-51.7,0-103.4,0-155.1c-0.1,0-0.2,0-0.4,0c-4.5,0-1.7,0-5.5,0c-0.2,0-0.5,0-0.8,0c0-5,0-10,0-15.3C273.8,7.6,274.1,7.6,274.3,7.6
		z M252.1,7.6c4.8,0,9.3,0,14.1,0c0,5.2,0,10.1,0,15.3c-4.6,0-9.2,0-14.1,0C252.1,18.1,252.1,13.1,252.1,7.6z M230.6,7.6
		c4.8,0,9.3,0,14.1,0c0,5.2,0,10.1,0,15.3c-4.6,0-9.2,0-14.1,0C230.6,18.1,230.6,13.1,230.6,7.6z M208.6,7.6c5,0,9.5,0,14.3,0
		c0,5.2,0,10.1,0,15.3c-4.8,0-9.4,0-14.3,0C208.6,17.8,208.6,12.9,208.6,7.6z M187.2,7.6c4.7,0,9.4,0,14.3,0c0,5.1,0,10,0,15.4
		c-4.9,0-9.4,0-14.3,0C187.2,18,187.2,13,187.2,7.6z M165.5,7.6c5,0,9.5,0,14.3,0c0,5.2,0,10.1,0,15.3c-4.8,0-9.4,0-14.3,0
		C165.5,17.8,165.5,12.9,165.5,7.6z M144,7.7c4.8,0,9.4,0,14.3,0c0,5,0,9.9,0,15.2c-4.6,0-9.2,0-14.3,0C144,17.6,144,12.8,144,7.7z
		 M122.5,7.7c4.6,0,9.2,0,14.1,0c0,4.9,0,9.8,0,15.2c-4.8,0-9.3,0-14.1,0C122.5,17.9,122.5,13,122.5,7.7z M101.1,7.6
		c5,0,9.5,0,14.3,0c0,5.2,0,10.1,0,15.3c-4.8,0-9.4,0-14.3,0C101.1,17.8,101.1,12.9,101.1,7.6z M79.1,7.7c4.7,0,9.3,0,14.3,0
		c0,4.9,0,9.9,0,15.2c-4.6,0-9.3,0-14.3,0C79.1,17.7,79.1,12.9,79.1,7.7z M57.6,7.6c5,0,9.5,0,14.3,0c0,5.2,0,10.1,0,15.3
		c-4.8,0-9.4,0-14.3,0C57.6,17.8,57.6,12.9,57.6,7.6z M36.1,7.6c5,0,9.5,0,14.3,0c0,5.2,0,10.1,0,15.3c-4.8,0-9.4,0-14.3,0
		C36.1,17.8,36.1,12.9,36.1,7.6z M14.6,7.6c5,0,9.5,0,14.3,0c0,5.2,0,10.1,0,15.3c-4.8,0-9.4,0-14.3,0C14.6,17.8,14.6,12.9,14.6,7.6
		z M28.8,193.3c-4.8,0-9.4,0-14.3,0c0-5.1,0-10,0-15.3c5,0,9.5,0,14.3,0C28.8,183.2,28.8,188.1,28.8,193.3z M50.3,193.3
		c-4.8,0-9.4,0-14.3,0c0-5.1,0-10,0-15.3c5,0,9.5,0,14.3,0C50.3,183.2,50.3,188.1,50.3,193.3z M71.8,193.3c-4.8,0-9.4,0-14.3,0
		c0-5.1,0-10,0-15.3c5,0,9.5,0,14.3,0C71.8,183.2,71.8,188.1,71.8,193.3z M93.5,193.3c-4.6,0-9.3,0-14.3,0c0-5.2,0-10,0-15.2
		c4.7,0,9.3,0,14.3,0C93.5,183.1,93.5,188.1,93.5,193.3z M115.3,193.3c-4.8,0-9.4,0-14.3,0c0-5.1,0-10,0-15.3c5,0,9.5,0,14.3,0
		C115.3,183.2,115.3,188.1,115.3,193.3z M136.6,193.4c-4.8,0-9.3,0-14.1,0c0-5,0-9.9,0-15.2c4.6,0,9.2,0,14.1,0
		C136.6,183,136.6,187.9,136.6,193.4z M158.3,193.2c-4.6,0-9.2,0-14.3,0c0-5.2,0-10,0-15.2c4.8,0,9.4,0,14.3,0
		C158.3,183.1,158.3,188,158.3,193.2z M179.7,193.3c-4.8,0-9.4,0-14.3,0c0-5.1,0-10,0-15.3c5,0,9.5,0,14.3,0
		C179.7,183.2,179.7,188.1,179.7,193.3z M201.5,193.4c-4.9,0-9.4,0-14.3,0c0-5.1,0-10.1,0-15.4c4.7,0,9.4,0,14.3,0
		C201.5,183.1,201.5,188,201.5,193.4z M222.8,193.3c-4.8,0-9.4,0-14.3,0c0-5.1,0-10,0-15.3c5,0,9.5,0,14.3,0
		C222.8,183.2,222.8,188.1,222.8,193.3z M244.7,193.3c-4.6,0-9.2,0-14.1,0c0-4.8,0-9.8,0-15.3c4.8,0,9.3,0,14.1,0
		C244.7,183.2,244.7,188,244.7,193.3z M266.2,193.3c-4.6,0-9.2,0-14.1,0c0-4.8,0-9.8,0-15.3c4.8,0,9.3,0,14.1,0
		C266.2,183.2,266.2,188,266.2,193.3z M273.7,53.7v94.5c0,13.5-11,24.5-24.5,24.5H31.8c-13.5,0-24.5-11-24.5-24.5V53.7
		c0-13.5,11-24.5,24.5-24.5h217.4C262.8,29.2,273.7,40.2,273.7,53.7z"/>
</g>
</svg>
